<?xml version="1.0" standalone="no"?>
<!DOCTYPE svg PUBLIC "-//W3C//DTD SVG 20010904//EN"
 "http://www.w3.org/TR/2001/REC-SVG-20010904/DTD/svg10.dtd">
<svg version="1.0" xmlns="http://www.w3.org/2000/svg"
 width="600.000000pt" height="226.000000pt" viewBox="0 0 600.000000 226.000000"
 preserveAspectRatio="xMidYMid meet">

<g transform="translate(0.000000,226.000000) scale(0.100000,-0.100000)"
fill="#000000" stroke="none">
<path d="M1459 2166 c-8 -8 3 -136 12 -136 5 0 9 32 9 70 0 61 -6 80 -21 66z"/>
<path d="M1501 2091 c-7 -34 -10 -65 -8 -68 7 -6 29 105 25 119 -3 7 -10 -16
-17 -51z"/>
<path d="M1426 2084 c7 -31 16 -59 20 -62 4 -4 4 4 1 18 -3 14 -9 42 -12 63
-4 20 -11 37 -15 37 -4 0 -2 -25 6 -56z"/>
<path d="M1384 2085 c8 -19 20 -43 26 -52 8 -14 9 -12 4 12 -11 49 -23 75 -34
75 -6 0 -5 -13 4 -35z"/>
<path d="M1532 2074 c-17 -63 -9 -65 16 -4 15 35 17 50 9 50 -7 0 -18 -21 -25
-46z"/>
<path d="M1250 2096 c0 -16 118 -122 126 -113 6 6 -105 127 -117 127 -5 0 -9
-6 -9 -14z"/>
<path d="M1320 2106 c0 -10 73 -106 77 -102 7 6 -52 99 -65 104 -6 2 -12 1
-12 -2z"/>
<path d="M1567 2059 c-35 -64 -30 -74 9 -17 46 67 46 68 32 68 -7 0 -26 -23
-41 -51z"/>
<path d="M1615 2050 c-32 -33 -56 -62 -53 -65 8 -9 128 95 128 111 0 24 -14
16 -75 -46z"/>
<path d="M1240 2030 c0 -5 27 -23 60 -40 33 -17 60 -28 60 -25 0 5 -107 75
-115 75 -3 0 -5 -4 -5 -10z"/>
<path d="M1632 2005 c-28 -20 -52 -38 -52 -41 0 -3 27 9 60 27 33 17 60 36 60
40 0 15 -14 10 -68 -26z"/>
<path d="M1220 1980 c0 -10 108 -45 116 -37 4 3 -99 47 -112 47 -2 0 -4 -4 -4
-10z"/>
<path d="M1648 1966 c-32 -11 -58 -24 -58 -28 0 -6 118 26 127 35 14 15 -20
11 -69 -7z"/>
<path d="M1460 1948 c0 -11 -8 -18 -20 -18 -11 0 -20 -4 -20 -10 0 -5 9 -10
19 -10 15 0 21 -8 24 -32 l4 -33 1 33 c2 25 6 32 22 32 11 0 20 5 20 10 0 6
-7 10 -15 10 -7 0 -19 8 -24 18 -10 16 -10 16 -11 0z"/>
<path d="M1190 1930 c0 -5 17 -10 38 -10 20 0 55 -2 77 -5 37 -4 37 -3 -10 9
-61 17 -105 19 -105 6z"/>
<path d="M1651 1929 c-56 -11 -69 -24 -16 -16 22 4 57 7 78 7 20 0 37 5 37 10
0 12 -37 11 -99 -1z"/>
<path d="M1156 1891 c-4 -5 -2 -12 2 -15 8 -5 186 4 180 9 -11 9 -177 15 -182
6z"/>
<path d="M1650 1891 c-54 -6 -54 -6 34 -13 90 -7 111 -5 101 13 -7 10 -44 10
-135 0z"/>
<path d="M1220 1851 c-25 -3 -40 -9 -34 -13 6 -4 44 -1 85 6 53 10 63 14 34
13 -22 0 -60 -3 -85 -6z"/>
<path d="M1669 1844 c41 -7 79 -10 85 -6 12 7 -67 20 -124 20 -21 0 -6 -5 39
-14z"/>
<path d="M1320 1833 c-281 -47 -523 -229 -655 -492 -107 -214 -118 -495 -28
-719 75 -190 223 -358 403 -460 31 -17 96 -44 145 -61 489 -163 1003 112 1146
614 30 103 36 285 14 400 -67 360 -354 648 -707 714 -82 15 -52 -3 42 -26 289
-70 529 -295 624 -586 109 -334 2 -705 -272 -940 -78 -66 -253 -157 -352 -182
-105 -26 -260 -30 -365 -10 -340 64 -600 303 -697 642 -32 112 -32 334 0 446
70 244 219 433 434 551 74 41 186 82 253 92 25 3 45 10 45 15 0 5 -1 8 -2 8
-2 -1 -14 -4 -28 -6z"/>
<path d="M1371 1754 c0 -11 3 -14 6 -6 3 7 2 16 -1 19 -3 4 -6 -2 -5 -13z"/>
<path d="M1423 1720 c3 -65 22 -65 22 0 0 33 -4 50 -12 50 -9 0 -12 -16 -10
-50z"/>
<path d="M1530 1751 c0 -10 -3 -33 -6 -50 -4 -20 -3 -31 5 -31 6 0 11 10 11
23 1 21 1 21 23 -5 28 -34 45 -37 24 -4 -14 21 -14 25 0 39 8 8 12 20 9 26
-10 15 -26 14 -21 -1 6 -17 -10 -42 -23 -35 -5 4 -7 18 -4 32 2 15 0 25 -7 25
-6 0 -11 -8 -11 -19z"/>
<path d="M1300 1744 c0 -4 10 -24 22 -45 22 -40 38 -50 38 -24 0 8 -4 15 -9
15 -5 0 -14 14 -21 30 -11 26 -30 41 -30 24z"/>
<path d="M1230 1738 c2 -24 30 -93 40 -96 7 -3 10 -1 7 4 -3 5 -10 28 -16 52
-7 23 -16 42 -21 42 -6 0 -10 -1 -10 -2z"/>
<path d="M1650 1725 c0 -9 7 -26 16 -40 14 -21 14 -24 -3 -35 -17 -10 -17 -11
2 -8 26 4 31 35 10 58 -9 10 -14 24 -10 29 3 6 1 11 -4 11 -6 0 -11 -7 -11
-15z"/>
<path d="M1361 1714 c0 -11 3 -14 6 -6 3 7 2 16 -1 19 -3 4 -6 -2 -5 -13z"/>
<path d="M1741 1683 c-7 -21 -15 -44 -17 -50 -3 -7 -1 -13 4 -13 13 0 44 82
34 92 -5 5 -14 -8 -21 -29z"/>
<path d="M1106 1675 c4 -8 10 -12 15 -9 5 3 29 -7 54 -21 49 -29 51 -29 33 10
-7 16 -14 21 -19 14 -5 -9 -13 -7 -30 5 -30 21 -60 21 -53 1z"/>
<path d="M1801 1643 c-12 -25 -19 -48 -15 -52 4 -3 9 -1 11 6 2 7 15 28 28 47
17 25 20 36 11 39 -8 3 -22 -13 -35 -40z"/>
<path d="M1868 1645 c3 -18 -3 -34 -18 -51 -28 -29 -9 -33 20 -4 23 23 26 53
6 69 -11 9 -12 6 -8 -14z"/>
<path d="M1050 1652 c0 -7 11 -30 25 -50 14 -20 25 -32 25 -27 -1 16 -50 92
-50 77z"/>
<path d="M1130 1625 c0 -5 5 -17 10 -25 5 -8 10 -10 10 -5 0 6 -5 17 -10 25
-5 8 -10 11 -10 5z"/>
<path d="M986 1608 c28 -48 48 -68 67 -67 13 1 16 3 7 5 -8 3 -25 20 -38 39
-20 32 -53 52 -36 23z"/>
<path d="M1952 1593 c-6 -3 -9 -9 -6 -14 3 -6 0 -16 -6 -24 -7 -8 -9 -15 -6
-15 4 0 2 -10 -5 -21 -8 -17 -8 -20 2 -17 12 4 42 76 37 88 -2 4 -9 5 -16 3z"/>
<path d="M1319 1579 c-115 -27 -249 -107 -329 -196 -90 -102 -159 -266 -160
-380 l0 -43 215 0 215 0 0 93 0 92 68 1 c37 0 79 3 95 7 l27 7 0 215 0 215
-47 -1 c-27 -1 -64 -5 -84 -10z m86 -155 c34 -36 32 -71 -3 -91 -18 -10 -34
-32 -43 -57 -11 -32 -19 -41 -36 -39 -11 1 -27 -4 -33 -12 -16 -19 -54 -19
-70 0 -6 8 -22 13 -33 12 -17 -2 -25 7 -36 39 -9 25 -25 47 -43 57 -35 20 -37
54 -5 90 21 25 25 26 150 26 126 1 128 1 152 -25z m-376 -224 c23 -6 48 -6 77
1 33 9 50 8 73 -2 l31 -14 0 -91 0 -92 -57 -7 c-78 -9 -108 -9 -173 1 l-55 9
-3 93 c-3 87 -2 92 18 92 11 0 20 5 20 10 0 13 26 13 69 0z"/>
<path d="M1217 1423 c18 -2 50 -2 70 0 21 2 7 4 -32 4 -38 0 -55 -2 -38 -4z"/>
<path d="M1106 1403 c-3 -4 -6 -17 -6 -29 0 -25 35 -43 52 -26 14 14 2 46 -13
36 -8 -4 -7 -9 2 -15 18 -11 4 -23 -16 -15 -9 3 -15 14 -13 23 3 14 13 18 48
16 25 -1 68 -2 95 -2 28 0 70 1 95 2 35 2 45 -2 48 -16 2 -9 -4 -20 -13 -23
-20 -8 -34 4 -16 15 9 6 10 11 2 15 -15 9 -27 -22 -13 -36 20 -20 47 -4 47 27
l0 30 -147 2 c-80 1 -149 -1 -152 -4z"/>
<path d="M1180 1368 c0 -6 -7 -19 -16 -29 -16 -18 -12 -39 8 -39 7 0 6 6 -2
15 -10 12 -9 15 4 15 10 0 15 4 11 10 -3 5 7 16 22 24 l28 15 -27 1 c-16 0
-28 -5 -28 -12z"/>
<path d="M1281 1376 c2 -2 14 -9 27 -15 18 -10 22 -9 22 4 0 10 -9 15 -27 15
-14 0 -24 -2 -22 -4z"/>
<path d="M1232 1354 l-23 -11 21 -6 c12 -3 19 -10 15 -16 -3 -6 -17 -8 -31 -5
-19 5 -23 3 -18 -10 3 -9 11 -16 16 -16 6 0 7 -7 4 -16 -7 -18 19 -54 39 -54
15 0 47 34 43 46 -1 5 4 20 11 33 12 23 12 23 -11 18 -32 -8 -45 4 -19 18 19
10 19 10 -2 20 -16 8 -29 7 -45 -1z m35 -80 c-3 -3 -12 -4 -19 -1 -8 3 -5 6 6
6 11 1 17 -2 13 -5z m7 -21 c-5 -5 -11 -11 -14 -14 -3 -4 -11 -1 -18 7 -11 12
-8 14 14 14 15 0 23 -3 18 -7z"/>
<path d="M1333 1334 c19 -6 23 -20 7 -27 -6 -3 -5 -4 2 -3 21 4 15 31 -7 33
-16 1 -16 1 -2 -3z"/>
<path d="M1320 1263 c0 -10 4 -14 8 -8 4 6 11 13 16 18 5 4 2 7 -7 7 -10 0
-17 -8 -17 -17z"/>
<path d="M980 1121 l0 -68 31 -7 c17 -3 35 -6 40 -6 5 0 9 29 9 65 0 68 -12
85 -59 85 -19 0 -21 -6 -21 -69z"/>
<path d="M1093 1183 c-9 -3 -13 -28 -13 -75 0 -68 1 -70 23 -64 12 3 30 6 40
6 14 0 17 10 17 70 0 70 0 70 -27 69 -16 0 -34 -3 -40 -6z"/>
<path d="M942 1098 l3 -73 50 -9 c56 -9 78 -9 148 0 l47 6 -2 77 -2 76 -5 -70
-6 -70 -45 -8 c-53 -9 -71 -10 -127 -1 l-43 6 0 69 c0 41 -4 69 -10 69 -7 0
-10 -27 -8 -72z"/>
<path d="M1480 1375 l0 -214 33 -6 c17 -3 61 -6 97 -8 l65 -2 1 -90 2 -90 217
-3 218 -2 -7 62 c-16 142 -82 273 -192 383 -107 107 -273 185 -393 185 l-41 0
0 -215z m57 93 c-2 -18 -1 -40 4 -49 9 -17 -9 -79 -23 -79 -11 0 -10 22 1 39
6 8 6 24 0 38 -10 27 -1 83 13 83 6 0 8 -14 5 -32z m42 0 c-3 -50 0 -68 11
-68 6 0 10 10 9 23 -4 48 1 79 14 74 7 -2 11 -18 9 -43 -3 -28 -1 -36 7 -28 7
6 13 25 14 42 1 19 7 32 16 32 10 0 12 -8 7 -30 -6 -30 -5 -31 29 -24 56 10
131 -13 176 -56 33 -31 39 -43 39 -78 0 -29 -6 -48 -20 -62 l-20 -20 45 0 c25
0 45 -4 45 -10 0 -6 -80 -10 -220 -10 -188 0 -220 2 -220 15 0 8 9 20 20 27
19 12 19 13 -7 34 -40 32 -22 44 63 44 81 0 95 -12 51 -47 l-24 -18 23 -18
c15 -11 41 -17 79 -17 51 0 55 1 41 16 -18 17 -22 79 -6 89 8 5 7 11 -1 21
-15 19 -99 19 -99 1 0 -9 -12 -14 -31 -15 -30 -1 -30 0 -14 18 42 46 128 46
170 0 16 -18 16 -20 1 -35 -36 -36 -10 -79 46 -73 23 2 37 11 48 31 14 25 13
30 -5 64 -31 55 -75 75 -163 71 -71 -3 -75 -5 -108 -41 -19 -20 -38 -37 -43
-37 -4 0 -7 28 -6 63 4 94 4 97 16 97 6 0 10 -15 8 -32z m194 -317 c-3 -11 2
-30 11 -43 20 -28 20 -42 0 -62 -21 -22 -58 -21 -50 0 3 9 -1 25 -9 37 -29 42
-13 87 31 87 17 0 21 -5 17 -19z m100 0 c-3 -10 3 -31 13 -45 23 -36 6 -76
-32 -76 -20 0 -25 4 -20 16 3 9 -1 25 -9 37 -29 42 -13 87 31 87 17 0 21 -5
17 -19z m100 -1 c-3 -12 2 -29 13 -41 26 -29 9 -73 -30 -77 -23 -3 -28 0 -22
13 3 9 -1 26 -9 38 -29 42 -13 87 31 87 17 0 21 -4 17 -20z"/>
<path d="M1558 1291 c27 -23 27 -30 5 -47 -16 -12 -13 -13 27 -13 42 0 44 1
25 15 -20 15 -20 15 3 34 12 10 22 21 22 24 0 3 -24 6 -52 6 l-53 -1 23 -18z"/>
<path d="M1736 1139 c-4 -10 1 -32 12 -53 16 -29 21 -33 26 -20 4 9 0 24 -8
33 -8 9 -16 25 -18 36 -4 17 -6 18 -12 4z"/>
<path d="M1836 1139 c-4 -10 1 -32 12 -53 16 -29 21 -33 26 -20 4 9 0 24 -8
33 -8 9 -16 25 -18 36 -4 17 -6 18 -12 4z"/>
<path d="M1936 1139 c-4 -10 1 -32 13 -55 16 -30 22 -34 27 -20 4 9 0 24 -9
34 -8 9 -17 26 -19 37 -4 17 -6 18 -12 4z"/>
<path d="M1898 1564 c-38 -20 -36 -28 2 -9 17 9 30 18 30 20 0 7 -1 6 -32 -11z"/>
<path d="M2545 1475 c0 -78 2 -85 20 -85 19 0 20 6 17 80 -3 63 -1 80 10 80
37 0 52 -61 21 -79 -23 -13 -12 -14 21 -1 20 7 26 16 26 40 0 34 -26 50 -83
50 l-32 0 0 -85z"/>
<path d="M2720 1532 c-37 -38 -40 -80 -6 -118 50 -59 146 -21 146 57 0 48 -26
78 -72 86 -32 5 -41 1 -68 -25z m88 6 c51 -65 -1 -185 -58 -133 -25 23 -28
105 -4 129 19 19 48 21 62 4z"/>
<path d="M2910 1475 c0 -100 18 -115 22 -19 l3 66 48 -66 c27 -36 53 -66 58
-66 5 0 9 38 9 85 0 55 -4 85 -11 85 -7 0 -10 -20 -7 -55 1 -30 1 -55 -2 -55
-3 1 -23 25 -45 55 -22 30 -48 55 -57 55 -16 0 -18 -11 -18 -85z"/>
<path d="M3085 1550 c-4 -7 2 -9 19 -4 l26 6 0 -81 c0 -73 2 -81 19 -81 18 0
19 7 19 77 -1 81 8 97 39 71 14 -11 16 -11 11 2 -6 18 -122 27 -133 10z"/>
<path d="M3250 1475 c0 -78 2 -85 20 -85 18 0 20 7 20 85 0 78 -2 85 -20 85
-18 0 -20 -7 -20 -85z"/>
<path d="M3350 1475 c0 -78 2 -85 20 -85 17 0 20 7 20 41 0 39 2 41 25 37 16
-3 25 -1 25 7 0 8 -9 10 -25 7 -23 -4 -25 -1 -25 33 0 36 1 37 30 32 17 -4 30
-2 30 3 0 6 -22 10 -50 10 l-50 0 0 -85z"/>
<path d="M3495 1475 c0 -73 2 -85 17 -85 14 0 17 13 20 85 3 79 2 85 -17 85
-18 0 -20 -7 -20 -85z"/>
<path d="M3634 1550 c-78 -31 -67 -160 14 -160 l27 0 -25 13 c-72 36 -30 172
45 143 8 -3 15 -1 15 4 0 12 -47 12 -76 0z"/>
<path d="M3765 1475 c0 -73 2 -85 17 -85 14 0 17 13 20 85 3 79 2 85 -17 85
-18 0 -20 -7 -20 -85z"/>
<path d="M3910 1557 c0 -1 -16 -40 -35 -85 -19 -45 -30 -82 -26 -82 5 0 14 14
20 30 8 23 16 30 36 30 20 0 28 -7 36 -30 7 -18 18 -30 29 -30 16 0 14 9 -13
85 -17 47 -35 85 -39 85 -4 0 -8 -1 -8 -3z m13 -77 c4 -15 0 -20 -14 -20 -20
0 -23 8 -13 34 7 20 20 13 27 -14z"/>
<path d="M2000 1505 c-19 -19 -30 -38 -26 -42 3 -4 23 9 42 29 20 19 32 38 27
41 -6 4 -25 -9 -43 -28z"/>
<path d="M880 1517 c0 -12 31 -28 78 -42 41 -12 22 10 -28 32 -33 14 -50 18
-50 10z"/>
<path d="M2066 1494 c6 -22 -20 -50 -51 -56 -17 -3 -17 -5 -4 -10 40 -16 89
46 60 75 -7 7 -8 4 -5 -9z"/>
<path d="M816 1451 c-3 -4 12 -22 34 -40 40 -32 50 -37 50 -23 0 14 -78 73
-84 63z"/>
<path d="M910 1441 c0 -6 4 -13 10 -16 6 -3 7 1 4 9 -7 18 -14 21 -14 7z"/>
<path d="M3688 1393 c7 -3 16 -2 19 1 4 3 -2 6 -13 5 -11 0 -14 -3 -6 -6z"/>
<path d="M2092 1368 c-7 -7 -12 -21 -12 -32 1 -20 1 -20 11 -3 6 11 25 25 43
33 l31 13 -30 1 c-17 0 -36 -5 -43 -12z"/>
<path d="M761 1354 c-2 -44 62 -71 90 -37 13 15 12 15 -6 6 -24 -14 -71 7 -78
34 -4 15 -5 14 -6 -3z"/>
<path d="M717 1283 c-3 -5 17 -18 44 -30 58 -26 66 -12 9 17 -44 22 -47 23
-53 13z"/>
<path d="M2172 1229 c-19 -17 -31 -33 -28 -36 5 -5 86 54 86 63 0 13 -29 -1
-58 -27z"/>
<path d="M2540 1181 c0 -61 3 -72 22 -85 28 -20 67 -20 95 -1 18 12 22 27 25
85 2 57 0 70 -12 70 -12 0 -14 -12 -12 -65 4 -73 -6 -95 -44 -95 -33 0 -46 32
-42 101 3 51 1 59 -14 59 -15 0 -18 -10 -18 -69z"/>
<path d="M2738 1165 c-2 -63 0 -85 10 -85 8 0 12 21 12 71 l0 71 53 -71 c28
-39 55 -71 60 -71 4 0 7 38 7 85 0 92 -17 118 -22 33 l-3 -53 -38 53 c-23 30
-46 52 -57 52 -16 0 -19 -10 -22 -85z"/>
<path d="M2935 1165 c0 -78 2 -85 20 -85 18 0 20 7 20 85 0 78 -2 85 -20 85
-18 0 -20 -7 -20 -85z"/>
<path d="M3051 1168 c32 -87 36 -95 44 -86 13 13 74 168 66 168 -5 0 -19 -27
-31 -60 -12 -33 -26 -60 -30 -60 -4 0 -15 27 -25 60 -14 45 -23 60 -36 60 -17
0 -16 -7 12 -82z"/>
<path d="M3205 1165 l0 -86 49 3 c30 2 51 8 54 16 3 11 0 11 -16 1 -38 -24
-50 -6 -50 70 l0 70 31 4 c22 3 17 4 -18 5 l-50 2 0 -85z"/>
<path d="M3355 1165 c0 -79 1 -85 20 -85 18 0 20 5 17 35 -2 19 0 35 5 35 5 0
23 -16 40 -35 17 -19 40 -35 51 -35 17 0 15 5 -14 37 -38 41 -40 48 -19 57 18
7 20 47 3 64 -7 7 -21 12 -32 12 -19 -1 -19 -1 -3 -11 31 -18 16 -79 -21 -79
-10 0 -13 11 -10 45 3 40 1 45 -17 45 -18 0 -20 -7 -20 -85z"/>
<path d="M3546 1234 c-23 -23 -20 -30 25 -75 33 -33 39 -43 29 -54 -15 -18
-42 -19 -59 -2 -11 10 -13 9 -9 -3 6 -19 50 -25 78 -10 32 17 27 67 -10 88
-51 29 -50 67 1 60 16 -3 29 -1 29 4 0 14 -68 8 -84 -8z"/>
<path d="M3685 1165 c0 -78 2 -85 20 -85 18 0 20 7 20 85 0 78 -2 85 -20 85
-18 0 -20 -7 -20 -85z"/>
<path d="M3785 1164 l0 -86 53 4 c69 6 95 30 95 89 0 57 -27 79 -97 79 l-51 0
0 -86z m99 60 c20 -20 21 -83 0 -112 -8 -12 -26 -22 -40 -22 -23 0 -24 2 -24
75 0 73 1 75 24 75 14 0 32 -7 40 -16z"/>
<path d="M3998 1182 c-41 -101 -41 -102 -29 -102 6 0 11 7 11 16 0 8 5 25 12
37 7 12 13 31 15 42 7 42 21 34 39 -22 10 -32 18 -61 16 -65 -1 -5 9 -8 22 -8
l23 0 -30 85 c-17 47 -36 85 -42 85 -5 0 -22 -31 -37 -68z"/>
<path d="M4148 1165 l-3 -85 36 0 c48 0 97 18 109 40 6 10 10 34 10 54 0 48
-37 76 -101 76 l-48 0 -3 -85z m103 58 c8 -9 14 -36 14 -60 0 -47 -20 -73 -57
-73 -16 0 -18 9 -18 75 0 72 1 75 24 75 13 0 30 -7 37 -17z"/>
<path d="M685 1190 c-3 -4 16 -15 42 -24 55 -19 53 -19 53 -7 0 16 -87 44 -95
31z"/>
<path d="M3282 1181 c-10 -6 -10 -10 3 -21 13 -11 15 -9 15 9 0 24 0 24 -18
12z"/>
<path d="M2208 1153 c-27 -8 -48 -19 -48 -25 0 -6 8 -7 18 -3 9 4 32 9 50 12
18 3 32 12 32 19 0 8 -1 14 -2 13 -2 -1 -24 -8 -50 -16z"/>
<path d="M667 1116 c-3 -7 0 -13 6 -13 7 0 29 -3 49 -7 22 -4 39 -2 43 4 4 6
-4 10 -19 10 -13 0 -36 4 -49 9 -19 7 -27 6 -30 -3z"/>
<path d="M1440 1071 l0 -40 -47 -3 c-46 -3 -48 -4 -51 -35 -3 -31 -3 -32 45
-35 l48 -3 3 -87 c3 -89 11 -105 47 -92 12 5 15 25 15 95 l0 89 45 0 c45 0 45
0 45 35 0 35 0 35 -45 35 l-45 0 0 40 c0 38 -2 40 -30 40 -28 0 -30 -2 -30
-39z m40 -21 l0 -40 45 0 c33 0 45 -4 45 -14 0 -10 -14 -16 -42 -18 l-43 -3
-5 -88 c-7 -117 -24 -117 -28 1 l-3 92 -44 0 c-33 0 -45 4 -45 15 0 11 12 15
45 15 l45 0 0 40 c0 29 4 40 15 40 11 0 15 -11 15 -40z"/>
<path d="M2192 1068 c-17 -17 -15 -33 3 -18 8 7 30 10 49 8 28 -3 33 -1 24 9
-13 16 -60 17 -76 1z"/>
<path d="M650 1032 c0 -10 90 -25 98 -17 9 8 -1 12 -50 19 -28 4 -48 3 -48 -2z"/>
<path d="M3329 1003 l-24 -26 30 7 c39 10 49 20 32 34 -11 9 -19 6 -38 -15z"/>
<path d="M2265 1010 c-4 -7 -24 -10 -45 -8 -30 3 -36 1 -28 -9 14 -18 63 -16
78 2 7 9 10 18 7 21 -3 3 -8 0 -12 -6z"/>
<path d="M658 943 c6 -2 18 -2 25 0 6 3 1 5 -13 5 -14 0 -19 -2 -12 -5z"/>
<path d="M682 917 c-17 -18 -32 -35 -32 -39 0 -5 24 -7 53 -6 50 1 50 2 9 5
l-42 4 41 35 c29 24 36 34 22 33 -10 0 -33 -14 -51 -32z"/>
<path d="M2604 940 c-55 -22 -85 -104 -60 -164 19 -46 63 -68 129 -64 43 2 52
7 56 23 3 19 3 19 -16 3 -43 -39 -106 -12 -123 52 -14 50 2 113 33 135 28 19
71 19 91 -1 15 -14 16 -14 16 5 0 19 -6 21 -52 20 -29 0 -63 -4 -74 -9z"/>
<path d="M2853 933 c-4 -10 -26 -64 -49 -120 -40 -95 -41 -103 -23 -103 11 0
18 4 15 9 -3 5 1 25 9 45 13 32 19 36 51 36 31 0 37 -4 50 -35 8 -20 12 -40 9
-45 -4 -6 9 -10 30 -10 35 0 35 0 22 28 -8 15 -29 69 -47 120 -32 90 -53 114
-67 75z m23 -91 c6 -30 4 -32 -20 -32 -29 0 -31 4 -15 49 13 37 26 31 35 -17z"/>
<path d="M2990 929 c0 -19 1 -19 16 -4 9 9 26 15 37 13 18 -3 20 -10 18 -107
-1 -58 -4 -109 -7 -113 -3 -4 14 -8 37 -8 34 0 39 2 30 14 -8 9 -11 48 -9 112
3 86 5 99 21 102 10 2 28 -5 39 -15 21 -17 21 -17 15 0 -4 10 -7 21 -7 23 0 2
-43 4 -95 4 -89 0 -95 -1 -95 -21z"/>
<path d="M3272 937 c-70 -40 -79 -156 -15 -207 34 -26 107 -27 150 0 64 38 67
152 6 199 -30 24 -104 28 -141 8z m106 -18 c40 -42 35 -166 -8 -189 -69 -37
-124 41 -100 145 14 64 69 86 108 44z"/>
<path d="M3518 938 c16 -16 16 -200 0 -216 -9 -9 5 -12 65 -12 66 0 77 2 77
17 0 13 -3 14 -12 5 -7 -7 -25 -12 -41 -12 l-28 0 3 115 3 115 -39 0 c-31 0
-37 -3 -28 -12z"/>
<path d="M3725 830 l0 -120 30 0 30 0 0 120 0 120 -30 0 -30 0 0 -120z"/>
<path d="M3906 931 c-39 -26 -55 -57 -56 -108 0 -33 6 -50 29 -75 25 -29 35
-32 95 -36 56 -4 66 -2 66 12 0 13 -4 15 -19 6 -92 -49 -168 113 -91 190 22
22 79 27 98 8 9 -9 12 -8 12 5 0 25 -95 24 -134 -2z"/>
<path d="M4141 862 c-18 -48 -42 -102 -52 -119 l-18 -33 25 0 c14 0 23 4 19
10 -3 6 -1 26 6 45 12 31 17 35 50 35 34 0 39 -3 49 -35 6 -19 9 -39 5 -45 -4
-6 9 -10 33 -10 l40 0 -17 33 c-9 17 -30 71 -46 120 -20 58 -35 87 -45 87 -10
0 -27 -31 -49 -88z m59 -39 c0 -8 -12 -13 -30 -13 -35 0 -34 -3 -14 46 l17 39
13 -30 c7 -16 13 -36 14 -42z"/>
<path d="M830 897 c0 -99 55 -239 134 -344 101 -134 304 -243 451 -243 l35 0
0 164 0 164 -24 6 c-33 8 -83 51 -111 96 -27 42 -55 131 -55 172 l0 28 -215 0
-215 0 0 -43z m260 10 c0 -33 22 -77 39 -77 8 0 25 10 38 22 18 17 23 18 23 6
0 -9 -7 -21 -16 -28 -8 -8 -20 -23 -26 -34 -10 -19 -8 -18 16 3 20 19 26 21
26 9 0 -9 -7 -21 -16 -28 -8 -8 -20 -23 -26 -34 -10 -19 -8 -18 16 3 19 18 26
21 26 9 0 -8 -9 -23 -20 -33 -11 -10 -22 -26 -25 -36 -4 -11 -17 -22 -31 -25
-13 -3 -24 -9 -24 -13 1 -11 87 -61 107 -61 10 0 34 11 53 25 42 31 58 31 100
0 19 -14 40 -25 47 -25 7 0 13 -4 13 -10 0 -17 -36 -11 -63 10 -32 25 -62 25
-94 0 -33 -26 -83 -26 -116 0 -33 26 -67 25 -101 -1 -42 -33 -45 -11 -3 24 42
36 46 47 17 47 -11 0 -27 12 -37 28 -9 15 -26 37 -37 50 -15 17 -16 22 -5 22
8 0 21 -6 28 -12 21 -19 3 11 -22 40 -24 26 -12 30 15 5 27 -24 22 1 -7 35
-28 34 -18 53 10 22 27 -30 49 -25 63 13 7 18 12 41 12 50 0 9 5 17 10 17 6 0
10 -10 10 -23z m44 -352 c44 -30 87 -32 111 -5 23 25 87 27 106 4 7 -9 23 -20
36 -25 25 -9 31 -29 10 -29 -7 0 -28 11 -47 25 -19 14 -41 25 -50 25 -9 0 -31
-11 -50 -25 -19 -14 -43 -25 -55 -25 -12 0 -36 11 -55 25 -35 26 -74 33 -85
15 -4 -6 -11 -8 -16 -4 -13 8 -1 24 25 34 30 12 29 13 70 -15z m6 -70 c19 -14
42 -25 52 -25 11 0 36 11 56 25 20 14 44 25 52 25 8 0 32 -11 52 -25 20 -14
42 -25 47 -25 6 0 11 -4 11 -10 0 -18 -29 -11 -70 16 l-40 27 -38 -27 c-50
-34 -84 -33 -143 6 -27 17 -49 33 -49 35 0 12 42 -1 70 -22z m211 -63 c13 -10
32 -21 42 -25 20 -7 23 -27 4 -27 -7 0 -28 11 -47 25 -39 29 -57 31 -87 10
-13 -9 -24 -11 -28 -6 -8 14 35 41 66 41 14 0 37 -8 50 -18z"/>
<path d="M1070 835 c0 -14 5 -25 10 -25 6 0 10 11 10 25 0 14 -4 25 -10 25 -5
0 -10 -11 -10 -25z"/>
<path d="M1030 795 c7 -8 19 -15 27 -15 13 0 13 3 3 15 -7 8 -19 15 -27 15
-13 0 -13 -3 -3 -15z"/>
<path d="M1099 794 c-12 -14 -11 -16 5 -13 11 2 21 10 24 17 5 17 -13 15 -29
-4z"/>
<path d="M1030 745 c7 -8 19 -15 27 -15 13 0 13 3 3 15 -7 8 -19 15 -27 15
-13 0 -13 -3 -3 -15z"/>
<path d="M1099 744 c-12 -14 -11 -16 5 -13 11 2 21 10 24 17 5 17 -13 15 -29
-4z"/>
<path d="M1030 695 c7 -8 19 -15 27 -15 13 0 13 3 3 15 -7 8 -19 15 -27 15
-13 0 -13 -3 -3 -15z"/>
<path d="M1099 694 c-12 -14 -11 -16 5 -13 11 2 21 10 24 17 5 17 -13 15 -29
-4z"/>
<path d="M1667 886 c-10 -103 -81 -212 -153 -238 l-34 -12 0 -164 0 -165 63 5
c191 16 396 157 491 338 38 73 76 200 76 257 l0 33 -219 0 -218 0 -6 -54z
m365 -11 c2 -25 2 -45 0 -45 -1 0 -11 5 -21 12 -15 9 -24 7 -46 -10 l-28 -22
42 0 41 0 0 -52 c0 -48 -1 -50 -18 -35 -16 15 -24 11 -107 -55 l-90 -71 -3 32
c-4 37 -7 38 -54 6 -43 -29 -58 -31 -58 -9 0 13 -5 12 -34 -5 -37 -23 -46 -25
-46 -12 0 8 81 61 94 61 3 0 6 -7 6 -15 0 -21 5 -19 55 15 24 17 46 30 49 30
2 0 6 -14 8 -31 l3 -31 77 61 c43 34 82 61 88 61 5 0 10 7 10 15 0 8 -7 15
-15 15 -8 0 -15 -4 -15 -9 0 -9 -123 -101 -134 -101 -3 0 -6 13 -6 30 l0 30
-49 -30 c-57 -36 -61 -36 -61 -10 0 19 -2 19 -40 -5 -44 -28 -50 -30 -50 -15
0 9 66 55 95 66 8 3 15 -3 17 -15 3 -19 5 -19 50 9 27 17 50 30 53 30 3 0 5
-14 5 -31 l0 -30 45 32 c25 18 45 38 45 46 0 18 -13 16 -43 -7 -33 -26 -37
-25 -37 5 0 14 -2 25 -5 25 -3 0 -26 -13 -53 -30 -44 -28 -47 -28 -50 -10 -4
25 -10 25 -47 0 -33 -22 -45 -25 -45 -11 0 8 93 71 105 71 3 0 5 -9 5 -20 0
-26 1 -26 57 10 l48 31 3 -26 c2 -14 5 -25 8 -25 3 0 30 18 60 40 30 23 59 38
64 35 6 -3 10 1 10 9 0 24 -15 20 -69 -19 -26 -19 -51 -35 -55 -35 -3 0 -6 11
-6 25 l0 26 -43 -26 c-54 -31 -57 -31 -57 -1 l0 25 -42 -24 c-47 -27 -58 -30
-58 -15 0 8 63 46 113 68 4 2 7 -8 7 -23 l0 -27 44 26 c55 32 56 32 56 1 0
-25 0 -25 26 -9 14 9 23 23 20 30 -4 10 5 14 33 14 39 0 39 0 43 -45z m-275
-295 c5 -19 7 -19 23 -5 15 14 19 14 29 1 7 -8 10 -24 6 -36 -5 -14 -2 -20 9
-20 9 0 16 -9 16 -20 0 -19 -9 -24 -36 -21 -6 1 -10 -9 -10 -21 1 -17 -5 -24
-21 -26 -16 -2 -23 2 -23 12 0 14 -3 14 -20 4 -15 -10 -22 -10 -32 0 -6 6 -16
12 -22 12 -5 0 -2 -6 8 -13 23 -17 11 -51 -15 -44 -13 4 -19 0 -19 -13 0 -24
-31 -35 -46 -16 -8 11 -14 12 -22 4 -17 -17 -44 -1 -37 21 5 15 2 18 -13 14
-25 -6 -39 27 -18 43 11 8 12 14 4 22 -16 16 -1 45 21 39 14 -3 17 0 14 14 -7
26 26 38 42 16 11 -15 14 -15 24 -3 17 20 41 9 42 -18 0 -21 0 -21 9 2 5 12
18 22 29 22 15 0 19 5 14 16 -3 9 0 20 8 25 22 14 30 11 36 -11z"/>
<path d="M1786 551 c-3 -5 -14 -7 -24 -4 -10 2 -24 -2 -31 -11 -7 -8 -20 -12
-29 -10 -14 4 -13 3 1 -6 13 -9 17 -19 13 -36 -6 -23 -5 -24 14 -12 18 11 23
10 37 -7 12 -15 14 -16 10 -3 -7 19 17 43 33 33 5 -3 10 -1 10 4 0 6 -6 11
-14 11 -19 0 -27 25 -13 39 6 6 8 11 5 11 -4 0 -9 -4 -12 -9z"/>
<path d="M1575 529 c3 -9 -1 -22 -10 -29 -8 -7 -15 -21 -15 -31 0 -10 -8 -23
-17 -29 -16 -10 -16 -11 -1 -6 20 6 43 -18 33 -34 -4 -7 2 -6 15 2 18 11 23
10 37 -7 12 -15 14 -16 10 -3 -7 21 15 40 39 32 18 -5 18 -5 2 6 -10 6 -18 17
-18 25 0 8 8 19 18 25 15 10 15 11 0 6 -22 -6 -40 16 -32 40 5 18 5 18 -6 2
-6 -10 -16 -18 -22 -18 -6 0 -17 8 -24 18 -11 13 -13 14 -9 1z"/>
<path d="M2180 928 c0 -10 15 -12 55 -10 71 5 71 16 0 20 -40 2 -55 -1 -55
-10z"/>
<path d="M1588 890 c-1 -11 -2 -28 -2 -37 -1 -10 -7 -24 -14 -32 -12 -12 -11
-16 2 -23 19 -10 37 -2 35 15 -1 7 1 20 6 30 4 10 5 21 2 24 -4 3 -2 14 4 24
8 16 6 19 -11 19 -13 0 -21 -7 -22 -20z m22 -40 c0 -5 -2 -10 -4 -10 -3 0 -8
5 -11 10 -3 6 -1 10 4 10 6 0 11 -4 11 -10z"/>
<path d="M1319 886 c16 -19 44 -21 39 -3 -3 6 -15 14 -28 15 -21 3 -22 2 -11
-12z"/>
<path d="M4405 796 l0 -86 53 0 c66 0 102 30 102 83 0 56 -27 80 -96 85 l-59
4 0 -86z m92 66 c19 -12 33 -60 27 -92 -8 -37 -26 -53 -56 -48 -21 3 -23 9
-26 62 -2 32 -1 65 2 72 6 15 34 18 53 6z"/>
<path d="M4605 795 l0 -85 53 0 c28 0 52 4 52 8 0 4 -16 6 -35 4 -34 -4 -35
-4 -35 33 0 36 1 37 30 33 19 -3 30 0 30 7 0 7 -11 10 -30 7 -29 -4 -30 -3
-30 33 0 37 0 38 35 32 21 -3 33 -2 30 4 -4 5 -27 9 -53 9 l-47 0 0 -85z"/>
<path d="M1328 853 c6 -2 18 -2 25 0 6 3 1 5 -13 5 -14 0 -19 -2 -12 -5z"/>
<path d="M2175 840 c-6 -10 94 -25 102 -16 4 3 4 8 2 10 -9 8 -100 13 -104 6z"/>
<path d="M1326 831 c-8 -12 21 -34 34 -26 17 11 11 35 -9 35 -11 0 -22 -4 -25
-9z m34 -5 c0 -3 -4 -8 -10 -11 -5 -3 -10 -1 -10 4 0 6 5 11 10 11 6 0 10 -2
10 -4z"/>
<path d="M682 818 c-19 -19 -14 -30 9 -17 12 6 34 9 50 7 23 -4 26 -2 18 9
-14 16 -61 17 -77 1z"/>
<path d="M1363 793 c-7 -3 -13 -11 -13 -20 0 -10 6 -12 22 -7 20 6 21 5 10 -9
-15 -18 0 -32 22 -20 12 7 10 13 -7 34 -12 15 -28 24 -34 22z"/>
<path d="M1550 776 c0 -21 13 -26 27 -11 10 10 9 14 -3 19 -22 8 -24 8 -24 -8z"/>
<path d="M2174 775 c-18 -15 -18 -15 6 -10 18 4 35 -1 54 -16 l29 -22 -12 21
c-10 18 -40 42 -53 42 -2 0 -13 -7 -24 -15z"/>
<path d="M756 762 c-9 -15 -52 -20 -73 -9 -16 9 -16 9 -4 -6 17 -21 64 -22 81
-2 7 9 10 18 7 21 -3 3 -8 1 -11 -4z"/>
<path d="M1520 740 c0 -15 21 -23 32 -12 6 6 2 11 -11 15 -12 3 -21 1 -21 -3z"/>
<path d="M1430 720 c0 -13 7 -20 20 -20 13 0 18 5 14 15 -4 8 -1 15 4 15 6 0
12 -8 14 -17 3 -15 5 -14 10 5 5 20 3 22 -28 22 -27 0 -34 -4 -34 -20z"/>
<path d="M2140 693 c0 -4 12 -20 28 -36 l27 -28 -42 5 c-24 3 -43 1 -43 -3 0
-9 90 -24 98 -16 3 2 -12 23 -32 45 -20 22 -36 37 -36 33z"/>
<path d="M707 683 c-4 -3 -7 -13 -7 -22 0 -13 2 -13 13 1 6 9 19 18 27 21 10
4 8 6 -6 6 -11 1 -24 -2 -27 -6z"/>
<path d="M751 651 c-24 -10 -40 -21 -34 -24 12 -8 93 22 93 35 0 11 -8 10 -59
-11z"/>
<path d="M4209 623 c-19 -21 -21 -25 -6 -20 11 4 30 10 43 13 20 5 22 9 13 20
-16 19 -22 18 -50 -13z"/>
<path d="M2529 565 c4 -5 25 -61 47 -122 21 -62 44 -113 50 -113 6 0 31 46 54
103 23 56 48 111 55 123 12 19 12 21 -11 16 -14 -2 -23 -7 -20 -9 4 -5 -50
-162 -59 -171 -4 -5 -55 149 -55 168 0 10 -10 15 -34 15 -21 0 -31 -4 -27 -10z"/>
<path d="M2842 563 c-6 -10 -26 -58 -47 -108 -20 -49 -39 -96 -42 -102 -3 -7
1 -13 9 -13 7 0 20 19 28 43 14 38 19 42 51 45 35 3 36 2 49 -42 11 -40 16
-46 40 -46 l27 0 -43 117 c-23 65 -47 119 -52 121 -6 2 -15 -5 -20 -15z m27
-115 c1 -5 -12 -8 -29 -8 -35 0 -34 -3 -14 46 l17 39 13 -35 c7 -19 13 -38 13
-42z"/>
<path d="M3015 458 l0 -118 73 0 c68 0 72 1 72 23 -1 20 -2 20 -11 5 -6 -12
-22 -18 -44 -18 l-35 0 0 103 c0 57 4 107 10 113 5 6 -5 9 -28 9 l-37 0 0
-117z"/>
<path d="M3221 558 c6 -12 9 -62 7 -119 l-3 -99 25 0 25 0 -3 106 c-4 112 1
127 39 117 39 -11 38 -90 -1 -111 -24 -13 -24 -13 9 -8 45 8 71 32 71 67 0 50
-39 67 -147 66 -29 0 -31 -2 -22 -19z"/>
<path d="M3470 503 c-18 -43 -40 -97 -50 -120 -18 -40 -18 -43 -2 -43 10 0 18
8 19 18 1 9 6 29 12 45 9 22 17 27 44 27 26 0 36 -6 45 -25 7 -14 12 -35 12
-45 0 -16 7 -20 31 -20 17 0 29 4 27 8 -1 4 -21 58 -43 120 -22 62 -45 112
-52 112 -6 0 -25 -35 -43 -77z m50 -50 c0 -7 -11 -13 -25 -13 -28 0 -30 4 -13
51 l12 34 12 -30 c7 -17 13 -36 14 -42z"/>
<path d="M3670 564 c7 -8 10 -52 8 -118 l-3 -106 26 0 c25 0 26 2 21 50 -2 28
-1 50 4 50 5 0 29 -23 54 -50 32 -36 55 -52 80 -56 l35 -7 -54 56 -55 56 27
25 c32 30 35 66 7 91 -26 23 -168 32 -150 9z m98 -10 c40 -27 23 -104 -23
-104 -23 0 -25 3 -25 53 0 71 8 79 48 51z"/>
<path d="M3973 460 c-42 -99 -48 -120 -34 -120 9 0 17 8 18 18 1 9 6 29 12 45
9 22 16 27 46 27 30 0 37 -5 46 -27 6 -16 11 -36 12 -45 1 -13 10 -18 30 -18
16 0 27 4 25 8 -1 5 -21 59 -43 120 -21 62 -44 112 -50 112 -7 0 -34 -54 -62
-120z m63 12 c6 -30 4 -32 -20 -32 -29 0 -31 4 -15 49 13 37 26 31 35 -17z"/>
<path d="M4191 564 c6 -8 9 -56 7 -118 l-3 -106 30 0 30 0 0 118 0 117 -37 0
c-28 1 -35 -2 -27 -11z"/>
<path d="M4363 570 c-28 -11 -46 -46 -39 -74 3 -12 26 -36 51 -54 38 -27 46
-37 43 -60 -2 -23 -8 -28 -36 -30 -18 -2 -40 2 -48 9 -11 9 -14 8 -14 -4 0
-20 49 -28 93 -16 25 7 38 17 45 37 13 39 0 66 -52 102 -47 32 -50 37 -40 64
7 19 64 22 83 4 10 -11 12 -9 9 7 -2 15 -12 21 -38 22 -19 1 -45 -2 -57 -7z"/>
<path d="M4585 567 c-56 -26 -82 -84 -65 -147 15 -56 51 -83 109 -84 62 -1
100 25 120 81 18 51 3 115 -34 139 -34 22 -94 27 -130 11z m90 -21 c49 -49 38
-174 -17 -195 -55 -20 -88 17 -88 102 0 66 11 94 43 107 32 13 36 12 62 -14z"/>
<path d="M902 429 c-18 -20 -29 -39 -25 -42 4 -2 23 13 41 34 18 20 29 39 25
42 -4 2 -23 -13 -41 -34z"/>
<path d="M2017 441 c17 -11 33 -30 36 -43 3 -18 5 -15 6 9 1 34 -19 53 -56 53
-13 0 -9 -6 14 -19z"/>
<path d="M966 427 c8 -23 -33 -70 -56 -62 -12 5 -13 4 -2 -7 10 -10 18 -10 40
2 29 17 41 55 22 74 -8 8 -9 6 -4 -7z"/>
<path d="M1963 405 c3 -38 49 -68 69 -46 7 8 8 11 2 8 -14 -8 -53 20 -65 47
-8 18 -8 17 -6 -9z"/>
<path d="M998 347 c-25 -38 -26 -43 -11 -59 9 -10 21 -18 26 -18 6 0 2 6 -8
14 -16 12 -17 16 -6 30 11 13 17 14 30 4 14 -11 14 -11 3 4 -10 12 -11 22 -3
37 21 39 -5 29 -31 -12z"/>
<path d="M1880 353 c0 -16 28 -36 43 -30 8 3 20 1 27 -3 11 -7 11 -11 0 -27
-13 -17 -13 -17 4 -1 25 22 14 48 -22 48 -15 0 -33 5 -40 12 -8 8 -12 8 -12 1z"/>
<path d="M1833 333 c-10 -4 6 -38 44 -92 2 -2 6 -2 9 1 9 10 -41 95 -53 91z"/>
<path d="M1124 265 c-3 -25 -4 -49 0 -52 3 -3 24 11 46 31 22 20 37 36 33 36
-4 0 -20 -12 -36 -27 l-29 -28 4 43 c5 56 -9 54 -18 -3z"/>
<path d="M1766 268 c40 -45 56 -59 62 -54 7 7 -58 76 -72 76 -5 0 -1 -10 10
-22z"/>
<path d="M1230 235 c-13 -14 -20 -25 -15 -25 4 0 14 8 22 18 13 16 14 16 12
-3 -3 -41 1 -65 11 -65 6 0 10 23 10 50 0 28 -4 50 -8 50 -5 0 -19 -11 -32
-25z"/>
<path d="M1660 245 c7 -8 9 -22 6 -31 -8 -20 10 -44 33 -44 12 0 11 4 -7 18
-17 13 -20 20 -11 29 9 9 9 16 -1 28 -7 8 -17 15 -22 15 -6 0 -5 -7 2 -15z"/>
<path d="M1625 204 c14 -46 22 -61 29 -53 7 7 -24 99 -34 99 -5 0 -3 -21 5
-46z"/>
<path d="M1326 209 c-8 -43 -8 -69 2 -69 4 0 9 15 10 33 1 17 5 40 8 50 3 9 1
17 -4 17 -5 0 -12 -14 -16 -31z"/>
<path d="M1537 232 c-8 -11 32 -92 45 -92 12 0 9 11 -16 59 -13 24 -26 39 -29
33z"/>
<path d="M1418 180 c-2 -29 1 -50 7 -50 6 0 11 23 12 50 2 65 -14 65 -19 0z"/>
<path d="M1465 205 c0 -14 5 -23 10 -22 6 2 10 12 10 22 0 10 -4 20 -10 22 -5
2 -10 -8 -10 -22z"/>
<path d="M1521 184 c0 -11 3 -14 6 -6 3 7 2 16 -1 19 -3 4 -6 -2 -5 -13z"/>
<path d="M1511 144 c0 -11 3 -14 6 -6 3 7 2 16 -1 19 -3 4 -6 -2 -5 -13z"/>
</g>
</svg>
